<svg width="180" height="29" viewBox="0 0 180 29" fill="none" xmlns="http://www.w3.org/2000/svg">
<g id="Group 14">
<path id="Vector" d="M32.8394 2.39302C32.1049 1.89989 31.2852 1.53946 30.382 1.31229C29.4782 1.08511 28.4029 0.971518 27.1561 0.971518H18.7756V22.5617H24.1984V15.5006H27.0409C27.8136 15.5006 28.5121 15.4378 29.1358 15.3116C29.76 15.186 30.3366 15.0118 30.8691 14.7901C31.4004 14.5673 31.8854 14.2975 32.3261 13.9786C32.7657 13.6597 33.1693 13.3113 33.5368 12.9345C34.1364 12.3256 34.5952 11.5665 34.9141 10.6578C35.233 9.74958 35.3925 8.79226 35.3925 7.78689C35.3925 6.54013 35.1702 5.46431 34.7257 4.56051C34.2806 3.65671 33.6526 2.93421 32.8394 2.39302ZM29.6283 9.48308C29.4984 9.86973 29.2493 10.2422 28.8818 10.5999C28.7082 10.7735 28.4591 10.9308 28.1353 11.0706C27.8109 11.211 27.5045 11.3054 27.2146 11.3535C26.8754 11.4114 26.4795 11.4458 26.0252 11.4556C25.5708 11.4654 25.0875 11.4698 24.5753 11.4698H24.1984V5.00285H24.9668C25.7696 5.00285 26.4052 5.01924 26.8733 5.05364C27.3424 5.08804 27.8333 5.21583 28.345 5.43755C28.7513 5.60247 29.0992 5.90392 29.3892 6.34408C29.6791 6.78424 29.8244 7.3085 29.8244 7.91741C29.8244 8.57437 29.7594 9.09644 29.6283 9.48308ZM50.6277 8.08397C49.1581 6.54232 47.0894 5.77177 44.4212 5.77177C41.7633 5.77177 39.6974 6.53795 38.2229 8.06977C36.7484 9.60213 36.0112 11.7216 36.0112 14.4286C36.0112 17.105 36.7484 19.2157 38.2229 20.7579C39.6968 22.3001 41.7628 23.0701 44.4212 23.0701C47.0993 23.0701 49.1701 22.3001 50.6348 20.7579C52.0994 19.2157 52.8312 17.1056 52.8312 14.4286C52.8312 11.7407 52.0961 9.62616 50.6277 8.08397ZM47.3936 16.885C47.2391 17.4704 47.0119 17.9712 46.7121 18.3862C46.4609 18.7341 46.1256 18.9951 45.7045 19.1693C45.2835 19.3435 44.8712 19.4309 44.4643 19.4309C43.9717 19.4309 43.5218 19.3435 43.116 19.1693C42.7097 18.9957 42.3717 18.7204 42.1008 18.3425C41.8398 17.9755 41.6273 17.4846 41.4629 16.8702C41.2986 16.2569 41.2167 15.4525 41.2167 14.457C41.2167 13.4614 41.3035 12.6346 41.4782 11.9777C41.6519 11.3202 41.8834 10.803 42.1734 10.4257C42.4825 10.0292 42.8211 9.76105 43.1886 9.6207C43.5556 9.4809 43.9663 9.41045 44.4206 9.41045C44.9045 9.41045 45.3348 9.49018 45.7111 9.64964C46.0884 9.80911 46.427 10.092 46.7263 10.4977C47.0064 10.8849 47.2265 11.3994 47.386 12.0421C47.5454 12.6854 47.6252 13.4893 47.6252 14.4564C47.6263 15.4908 47.5482 16.3006 47.3936 16.885ZM53.5357 9.81675H56.465V21.0687C56.465 22.4416 56.288 23.4267 55.9352 24.0264C55.5824 24.626 54.9178 24.9252 53.9414 24.9252C53.7 24.9252 53.3784 24.8941 52.977 24.8313C52.5756 24.7685 52.2113 24.6839 51.8826 24.5774H51.491V28.3182C51.8389 28.4056 52.3899 28.4897 53.1435 28.5721C53.8977 28.654 54.7387 28.6961 55.6665 28.6961C57.3966 28.6961 58.8077 28.1811 59.9005 27.1517C60.9932 26.1223 61.5393 24.6888 61.5393 22.8522V6.27855H53.5351V9.81675H53.5357ZM56.1313 3.9587H61.5399V0H56.1313V3.9587ZM64.3927 3.9587H69.7582V0H64.3927V3.9587ZM64.538 22.5617H69.6129V6.27855H64.538V22.5617ZM82.2705 12.9055C81.749 12.7319 81.2051 12.5937 80.6399 12.4916C80.0746 12.3905 79.5744 12.2868 79.1392 12.1803C78.2976 11.9777 77.7515 11.7696 77.5008 11.5566C77.2491 11.3442 77.1235 11.0542 77.1235 10.6867C77.1235 10.2706 77.3774 9.93744 77.8853 9.68623C78.3932 9.43503 79.0136 9.30942 79.7486 9.30942C80.2991 9.30942 80.8375 9.37222 81.3656 9.49783C81.8915 9.62343 82.3683 9.78289 82.7937 9.97621C83.1508 10.1411 83.5178 10.3366 83.8957 10.5633C84.272 10.791 84.5483 10.9723 84.7225 11.1072H85.1277V6.98958C84.4708 6.6701 83.6631 6.39705 82.7063 6.16987C81.7495 5.94324 80.6999 5.82911 79.5597 5.82911C78.361 5.82911 77.2857 5.97437 76.3333 6.26435C75.3814 6.55433 74.5814 6.94589 73.9342 7.43847C73.286 7.94143 72.7956 8.5143 72.4625 9.15651C72.1294 9.79982 71.9623 10.4835 71.9623 11.2088C71.9623 12.4746 72.2834 13.4969 72.9267 14.2751C73.5694 15.0533 74.5295 15.6399 75.8052 16.0369C76.2596 16.1821 76.7822 16.3099 77.3709 16.4208C77.9607 16.5316 78.4494 16.6365 78.8355 16.7321C79.5607 16.9068 80.0495 17.0903 80.3002 17.2836C80.5519 17.4769 80.6775 17.7626 80.6775 18.1394C80.6775 18.6227 80.4045 18.9755 79.8584 19.1983C79.3123 19.42 78.681 19.5308 77.9661 19.5308C77.2698 19.5308 76.6244 19.4511 76.0307 19.2916C75.4355 19.1316 74.9019 18.9405 74.4279 18.7188C73.8769 18.4769 73.4466 18.2453 73.1375 18.0225C72.8284 17.8002 72.5526 17.5976 72.3112 17.413H71.8902V21.7054C72.5859 22.0544 73.4684 22.358 74.5366 22.6196C75.6048 22.8801 76.7385 23.0112 77.9361 23.0112C79.2511 23.0112 80.3799 22.8703 81.3225 22.5907C82.2645 22.31 83.0848 21.9135 83.7799 21.4012C84.4369 20.9278 84.9448 20.3451 85.3019 19.6543C85.6602 18.9629 85.8393 18.2355 85.8393 17.4715C85.8393 16.263 85.5362 15.2947 84.9328 14.564C84.3266 13.8355 83.4403 13.2818 82.2705 12.9055ZM93.2581 1.62466H88.1837V6.27855H86.2401V9.81675H88.1837V17.4289C88.1837 19.3632 88.655 20.7552 89.597 21.6049C90.5396 22.4563 92.0458 22.8806 94.1139 22.8806C95.0127 22.8806 95.7713 22.8402 96.39 22.7578C97.0088 22.6753 97.5942 22.5617 98.1446 22.4175V18.8356H97.7105C97.5368 18.9318 97.2294 19.0383 96.7887 19.1546C96.3491 19.2698 95.9941 19.3282 95.7232 19.3282C95.0663 19.3282 94.566 19.2288 94.2225 19.0306C93.879 18.8335 93.6404 18.5642 93.505 18.2262C93.3597 17.8876 93.2821 17.5048 93.2734 17.0799C93.2636 16.6545 93.2587 16.1565 93.2587 15.5858V9.81675H98.1446V6.27855H93.2587V1.62466H93.2581ZM107.301 5.77122C104.556 5.77122 102.42 6.56362 100.893 8.14895C99.3663 9.73429 98.6023 11.8559 98.6023 14.5138C98.6023 17.2301 99.4214 19.3233 101.06 20.7929C102.698 22.2624 105.054 22.9964 108.128 22.9964C108.969 22.9964 109.682 22.956 110.268 22.8735C110.852 22.7916 111.419 22.6775 111.971 22.5322C112.571 22.387 113.042 22.2455 113.384 22.1046C113.728 21.9648 114.107 21.8125 114.523 21.6481V17.4567H113.986C113.764 17.6211 113.476 17.8095 113.124 18.0225C112.771 18.236 112.386 18.4332 111.971 18.6178C111.498 18.8302 110.975 19.0017 110.406 19.1316C109.835 19.2627 109.255 19.3277 108.665 19.3277C107.979 19.3277 107.345 19.2627 106.766 19.1316C106.185 19.0017 105.678 18.786 105.243 18.4861C104.798 18.1863 104.441 17.7828 104.17 17.2749C103.899 16.767 103.74 16.1368 103.691 15.3826H114.812V13.5559C114.812 11.0526 114.184 9.12921 112.928 7.78525C111.671 6.44347 109.796 5.77122 107.301 5.77122ZM103.677 12.325C103.734 11.3103 104.041 10.5076 104.597 9.91833C105.153 9.32854 105.924 9.03364 106.91 9.03364C107.877 9.03364 108.594 9.31434 109.063 9.87464C109.532 10.4349 109.78 11.2519 109.809 12.325H103.677ZM127.157 5.82911C126.2 5.82911 125.327 6.02734 124.541 6.42381C123.753 6.82028 122.943 7.3713 122.112 8.07687V6.27855H117.037V22.5617H122.112V11.0204C122.595 10.6823 123.05 10.4355 123.475 10.2809C123.899 10.1264 124.32 10.0483 124.736 10.0483C125.288 10.0483 125.727 10.128 126.055 10.2875C126.384 10.447 126.636 10.7102 126.81 11.0777C126.955 11.3868 127.054 11.8679 127.107 12.5205C127.161 13.1731 127.187 13.8284 127.187 14.4854V22.5617H132.291V11.9624C132.291 9.9713 131.85 8.45095 130.971 7.40243C130.092 6.35391 128.82 5.82911 127.157 5.82911ZM135.037 0V3.9587H140.401V0H135.037ZM135.182 22.5617H140.257V6.27855H135.182V22.5617Z" fill="#0C71B4"/>
<path id="Vector_2" d="M8.69943 5.76953C5.95416 5.76953 3.81781 6.56193 2.2909 8.14726C0.762907 9.7326 0 11.8542 0 14.5121C0 17.2284 0.819155 19.3216 2.45746 20.7912C4.09632 22.2608 6.45221 22.9947 9.52568 22.9947C10.3672 22.9947 11.0799 22.9543 11.6648 22.8718C12.2496 22.7894 12.817 22.6758 13.3686 22.5305C13.9682 22.3853 14.439 22.2438 14.7819 22.1029C15.1254 21.9631 15.505 21.8108 15.9211 21.6464V17.455H15.3843C15.162 17.6194 14.8742 17.8078 14.522 18.0208C14.1692 18.2343 13.7842 18.4315 13.3692 18.6161C12.8957 18.8285 12.3731 19 11.8035 19.1299C11.2328 19.261 10.6528 19.326 10.063 19.326C9.37659 19.326 8.74366 19.261 8.16315 19.1299C7.58319 19 7.07586 18.7843 6.64062 18.4845C6.19609 18.1846 5.83839 17.7811 5.56752 17.2732C5.29666 16.7653 5.13774 16.1351 5.08914 15.3809H16.2105V13.5542C16.2105 11.0509 15.582 9.12752 14.3254 7.78356C13.0688 6.44178 11.194 5.76953 8.69943 5.76953ZM5.07494 12.3233C5.13228 11.3087 5.43973 10.5059 5.99567 9.91664C6.5516 9.32685 7.3227 9.03195 8.30841 9.03195C9.27556 9.03195 9.9926 9.31265 10.4612 9.87295C10.9303 10.4333 11.1787 11.2502 11.2077 12.3233H5.07494ZM143.143 22.56H148.276V16.862H143.143V22.56ZM159.178 5.82742C157.988 5.82742 156.846 5.98961 155.749 6.31345C154.651 6.63784 153.696 7.13807 152.885 7.81414C152.044 8.52025 151.377 9.41859 150.884 10.5108C150.391 11.6036 150.145 12.9279 150.145 14.4837C150.145 15.9336 150.371 17.1924 150.826 18.2616C151.28 19.3293 151.913 20.2167 152.725 20.9217C153.547 21.6278 154.516 22.1494 155.632 22.4874C156.749 22.8254 157.979 22.9953 159.323 22.9953C160.028 22.9953 160.596 22.9592 161.026 22.8866C161.456 22.814 161.919 22.7107 162.412 22.5753C162.808 22.4688 163.197 22.3334 163.579 22.169C163.96 22.0046 164.296 21.8599 164.587 21.7349V17.3835H163.934C163.761 17.5572 163.552 17.7538 163.31 17.9717C163.069 18.189 162.779 18.3993 162.441 18.6019C162.093 18.8045 161.677 18.9781 161.194 19.1245C160.709 19.2687 160.15 19.3407 159.512 19.3407C158.255 19.3407 157.248 18.9399 156.488 18.1377C155.73 17.3349 155.35 16.1171 155.35 14.4837C155.35 12.9563 155.705 11.7412 156.415 10.8368C157.126 9.93357 158.13 9.4814 159.424 9.4814C159.995 9.4814 160.512 9.55184 160.977 9.69164C161.441 9.83199 161.855 10.0035 162.223 10.2061C162.571 10.3994 162.892 10.6124 163.188 10.8445C163.482 11.0766 163.732 11.289 163.934 11.4823H164.587V7.13206C163.678 6.67825 162.774 6.34676 161.875 6.13924C160.976 5.93118 160.077 5.82742 159.178 5.82742ZM172.054 18.6745L179.841 9.56823V6.27686H166.109V10.0903H173.533L165.761 19.2108V22.56H180V18.6745H172.054Z" fill="#1CA23A"/>
</g>
</svg>
