<svg width="28" height="28" viewBox="0 0 28 28" fill="none" xmlns="http://www.w3.org/2000/svg">
    <g id="Regular / phone-alt-solid Copy">
        <path id="Shape" d="M23.8131 16.8142L19.5169 14.9723C18.5802 14.5662 17.4764 14.8363 16.8394 15.6263L15.6389 17.092C13.6797 15.9654 12.0387 14.3248 10.9139 12.4063L12.3817 11.2041C13.1652 10.5645 13.4356 9.46722 13.0388 8.53316L11.1869 4.18047C10.7424 3.16547 9.64074 2.6116 8.56755 2.85966L4.57536 3.78103C3.53061 4.01991 2.79999 4.93735 2.79999 6.01185C2.79999 16.595 11.4056 25.2006 21.9887 25.2006C23.0632 25.2006 23.9807 24.4704 24.1806 23.4274L25.102 19.4313C25.3925 18.3542 24.8325 17.2517 23.8131 16.8142ZM23.0956 18.9579L22.1729 22.9571C22.1524 23.0052 22.0807 23.1006 21.9883 23.1006C12.5646 23.1006 4.89959 15.4356 4.89959 6.01189C4.89959 5.92028 4.95634 5.84853 5.04589 5.82801L9.04202 4.90576C9.05569 4.90234 9.07005 4.90097 9.08372 4.90097C9.15958 4.90097 9.23067 4.94678 9.26077 5.01512L11.1044 9.31705C11.1372 9.39432 11.1153 9.48453 11.0497 9.53852L8.91624 11.2492C8.53889 11.5581 8.42405 12.0865 8.63869 12.524C10.0829 15.4653 12.5001 17.8834 15.4418 19.3272C15.8399 19.5418 16.4083 19.427 16.7176 19.0496L18.468 16.9115C18.5165 16.85 18.6074 16.8268 18.6833 16.8623L22.9822 18.7038C23.065 18.7785 23.1131 18.8704 23.0956 18.9579Z" fill="#797979"/>
    </g>
</svg>
